# xmcd
#
# Track frame offsets:
#	150
#	28506
#	52351
#	76453
#	107525
#	133347
#	175294
#	205050
#	246823
#
# Disc length: 3434 seconds
#
# Revision: 0
# Processed by: cddbd v1.4PL0 Copyright (c) Steve Scherf et al.
# Submitted via: MusicWizard 6.0.0
#
DISCID=7d0d6809
DTITLE=Dr. John - Funky New Orleans
DYEAR=1991
DGENRE=Soul
TTITLE0=Hu-Ta-Nay
TTITLE1=Big Chief
TTITLE2=Shave'em Dry
TTITLE3=Ja-Ki-Mo-Fi-Na-Hay
TTITLE4=Mamzelle Zizi
TTITLE5=Livin' On Borrowed Time
TTITLE6=You Ain't So Such A Much
TTITLE7=Hu-Ta-Nay
TTITLE8=Walkin' Home
EXTD=Dr. John p, g, voc - with the Donald Harrison Band
EXTT0=
EXTT1=
EXTT2=
EXTT3=
EXTT4=
EXTT5=
EXTT6=
EXTT7=
EXTT8=
PLAYORDER=
